<svg xmlns="http://www.w3.org/2000/svg" width="52" height="64" fill="none" viewBox="0 0 52 64">
  <path fill="#639" d="M0 6h43.68c2.2066 0 4.3228.87657 5.8831 2.43687C51.1234 9.99717 52 12.1134 52 14.32v35.36c0 2.2066-.8766 4.3228-2.4369 5.8831C48.0028 57.1234 45.8866 58 43.68 58H8.32c-2.2066 0-4.32283-.8766-5.88313-2.4369C.876569 54.0028 0 51.8866 0 49.68V6Z"/>
  <path fill="#fff" d="M18.6215 53.84c-3.3399-.0031-5.4007-1.884-5.3612-5.3451v-8.7563c0-1.7544.5138-3.0888 1.5413-4.0019 1.8455-1.7779 6.1272-1.886 7.9347.0271 1.1138.9822 1.534 2.9889 1.4341 4.8614H20.337c.0291-.7358-.0099-1.8501-.4425-2.2698-.5621-.7607-2.0467-.6713-2.4393.1207-.2413.4295-.362 1.0655-.362 1.9068v7.6014c0 1.5938.5538 2.3998 1.662 2.4175.5179 0 .9115-.1883 1.1793-.5642.3739-.4462.4321-1.4342.402-2.1487h3.8334c.2621 3.6437-1.8886 6.1963-5.5489 6.1511h.0005Zm12.1701 0c-3.7008.051-5.3565-2.5823-5.2541-6.1511h3.6187c-.1004 1.5559.4342 2.9729 1.7155 2.8741.5715 0 .9739-.1789 1.2064-.5372.442-.6547.5247-2.5454-.1071-3.277-.4415-.7046-2.0296-1.3266-2.8684-1.7457-1.1975-.573-2.0597-1.2532-2.587-2.0415-1.1892-1.7493-1.079-5.589.5897-7.1448 1.6214-1.9198 5.8557-2.0082 7.4787-.04 1.001 1.0145 1.4383 3.0108 1.3535 4.8479h-3.485c.0296-.755-.0416-1.9734-.3349-2.4175-.2054-.3759-.5944-.5642-1.1658-.5642-1.0187 0-1.5278.609-1.5278 1.8263.0109 1.2927.5148 1.8231 1.689 2.3634 1.5204.5907 3.4538 1.5995 4.1548 2.8205 2.0904 3.72.6562 9.4026-4.4767 9.1858l.0005.001Zm11.6875 0c-3.7008.051-5.3565-2.5823-5.2541-6.1511h3.6187c-.1003 1.5559.4342 2.9729 1.7155 2.8741.5715 0 .974-.1789 1.2064-.5372.442-.6547.5247-2.5454-.1071-3.277-.4415-.7046-2.0296-1.3266-2.8683-1.7457-1.1976-.573-2.0598-1.2532-2.587-2.0415-1.1893-1.7493-1.079-5.589.5896-7.1448 1.6214-1.9198 5.8558-2.0082 7.4787-.04 1.001 1.0145 1.4383 3.0108 1.3535 4.8479H44.14c.0296-.755-.0416-1.9734-.3349-2.4175-.2054-.3759-.5943-.5642-1.1658-.5642-1.0187 0-1.5278.609-1.5278 1.8263.0109 1.2927.5148 1.8231 1.689 2.3634 1.5205.5907 3.4538 1.5995 4.1548 2.8205 2.0904 3.72.6562 9.4026-4.4767 9.1858l.0005.001Z"/>
</svg>
