<svg width="43" height="64" viewBox="0 0 43 64" fill="none" xmlns="http://www.w3.org/2000/svg">
<path d="M3.91324 55.1809L0 11.7909H43L39.0829 55.1741L21.4737 60L3.91324 55.1809Z" fill="#E44D26"/>
<path d="M21.5 56.3116L35.7287 52.4118L39.0769 15.3388H21.5V56.3116Z" fill="#F16529"/>
<path d="M21.4993 31.4323H14.3761L13.8841 25.983H21.4993V20.6612H21.481H8.00098L8.12981 22.089L9.45289 36.7539H21.4993V31.4323Z" fill="#EBEBEB"/>
<path d="M21.4995 45.2528L21.4758 45.259L15.4806 43.6588L15.0973 39.4146H12.1842H9.69336L10.4476 47.7702L21.4747 50.7965L21.4995 50.7894V45.2528Z" fill="#EBEBEB"/>
<path d="M4 0H6.73573V2.6719H9.23823V0H11.9741V8.09127H9.23823V5.38186H6.73573V8.09127H4.00013L4 0Z" fill="white"/>
<path d="M15.5713 2.68321H13.1631V0H20.7168V2.68321H18.3072V8.09127H15.5713V2.68321Z" fill="white"/>
<path d="M21.916 0H24.7684L26.5232 2.843L28.276 0H31.1298V8.09127H28.4052V4.08086L26.5232 6.95779H26.476L24.5927 4.08086V8.09127H21.916V0Z" fill="white"/>
<path d="M32.4912 0H35.2276V5.41673H39.075V8.09102H32.4912V0Z" fill="white"/>
<path d="M21.4814 31.4321V36.7537H28.1101L27.4852 43.6555L21.4814 45.2575V50.794L32.5171 47.7703L32.598 46.8713L33.8632 32.8611L33.9946 31.4321H32.5439H21.4814Z" fill="white"/>
<path d="M21.4814 20.6612V23.9664V25.9699V25.983H34.4671H34.4841L34.5922 24.7867L34.8375 22.089L34.9664 20.6612H21.4814Z" fill="white"/>
</svg>
