<svg xmlns="http://www.w3.org/2000/svg" width="53" height="64" fill="none" viewBox="0 0 53 64">
  <defs>
    <linearGradient id="a" x1="43.5606" x2="9.70066" y1="-2.6432" y2="66.8092" gradientUnits="userSpaceOnUse">
      <stop offset=".3" stop-color="#3E863D"/>
      <stop offset=".5" stop-color="#55934F"/>
      <stop offset=".8" stop-color="#5AAD45"/>
    </linearGradient>
    <linearGradient id="b" x1="-4.4166" x2="57.5636" y1="55.281" y2="9.23409" gradientUnits="userSpaceOnUse">
      <stop offset=".57" stop-color="#3E863D"/>
      <stop offset=".72" stop-color="#619857"/>
      <stop offset="1" stop-color="#76AC64"/>
    </linearGradient>
    <linearGradient id="c" x1="1.51394" x2="52.9618" y1="31.989" y2="31.989" gradientUnits="userSpaceOnUse">
      <stop offset=".16" stop-color="#6BBF47"/>
      <stop offset=".38" stop-color="#79B461"/>
      <stop offset=".47" stop-color="#75AC64"/>
      <stop offset=".7" stop-color="#659E5A"/>
      <stop offset=".9" stop-color="#3E863D"/>
    </linearGradient>
  </defs>
  <path fill="url(#a)" d="M1.42889 15.9527 25.0736 2.37955h-.0061C25.5108 2.1267 26.0047 2 26.4986 2s.9878.1267 1.4311.37955L51.5689 15.9527C52.4556 16.4606 53 17.3984 53 18.412v27.1652c0 1.0137-.5444 1.9514-1.4255 2.4594L27.932 61.6203c-.8828.5063-1.9727.5063-2.8567 0L1.42889 48.0366C.543268 47.5286 0 46.5914 0 45.5772V18.412c0-1.0136.543268-1.9514 1.42889-2.4593Z"/>
  <path fill="url(#b)" d="M1.4273 48.0365c-.33281-.1898-.615674-.4426-.841851-.7346L27.1632 2.08031c.2565.06698.5085.16187.7408.29583l8.1839 4.68308 15.4822 8.89168c.2503.1452.4736.3182.6645.5247L27.2968 61.8887c-.1841.0519-.3727.0871-.5613.1022-.5657.0418-1.1415-.081-1.6466-.3712l-3.3787-1.9313L1.4273 48.0365Z"/>
  <path fill="url(#c)" d="M25.074 2.37953c.3575-.20205.7453-.32485 1.1421-.36392l.014.00055c.0786-.00725.1571-.01116.2357-.01116.1965 0 .3873.01954.5781.05693L52.9521 46.0801v.0647c-.1622.7871-.6562 1.4793-1.3711 1.8917L27.9362 61.6203c-.3142.1808-.6622.298-1.0158.3483L1.49658 15.9136 25.074 2.37953Z"/>
</svg>
