<svg xmlns="http://www.w3.org/2000/svg" width="59" height="64" fill="none" viewBox="0 0 59 64">
  <path fill="#58C4DC" d="M59 31.9918c0-3.8627-4.8987-7.5291-12.3958-9.8042 1.7377-7.5619.9599-13.58514-2.4328-15.51653C43.3935 6.21278 42.4833 6 41.4738 6v2.65156c.5461 0 .993.11457 1.3736.31098 1.6384.93296 2.3501 4.46836 1.7874 9.00216-.1324 1.113-.3476 2.2915-.6124 3.5027-2.35-.5728-4.9318-1.0148-7.646-1.293-1.6218-2.1933-3.3099-4.2065-4.998-5.9415 3.9223-3.6009 7.5964-5.58134 10.1119-5.58134V6c-3.3099 0-7.646 2.32421-12.0151 6.3834C25.0895 8.35694 20.77 6.0491 17.46 6.0491v2.65156c2.4825 0 6.1897 1.96414 10.112 5.54864-1.6881 1.7513-3.3762 3.7318-4.965 5.9414-2.7142.2783-5.2959.7202-7.646 1.3095-.2813-1.1949-.4799-2.3406-.6289-3.4536-.5627-4.5502.1324-8.08563 1.7543-9.01859.3641-.21278.8275-.31098 1.3902-.31098V6.06547c-1.0096 0-1.9198.21278-2.7142.67107-3.3761 1.93139-4.1374 7.93836-2.3997 15.48376C4.88219 24.5118 0 28.1618 0 32.0082c0 3.8627 4.89874 7.5291 12.3958 9.8042-1.7377 7.5619-.9599 13.5852 2.4328 15.5165.7779.4583 1.6881.6711 2.7142.6711 3.3099 0 7.646-2.3242 12.0151-6.3834 4.3857 4.0265 8.7052 6.3343 12.0152 6.3343 1.0095 0 1.9197-.2128 2.7141-.6711 3.3762-1.9314 4.1375-7.9383 2.3998-15.4838C54.1178 39.5046 59 35.8382 59 31.9918Zm-15.6726-7.9383c-.4469 1.5386-.993 3.1099-1.6219 4.6975-.4965-.9493-1.0096-1.8986-1.5723-2.8479-.5461-.9494-1.1419-1.8823-1.7377-2.7825 1.7046.2455 3.3596.5565 4.9319.9329Zm-5.5111 12.6686c-.9434 1.604-1.9033 3.1262-2.8962 4.5502-1.7874.1473-3.6079.2455-5.4449.2455-1.8205 0-3.641-.0818-5.4118-.2292-.993-1.4239-1.9694-2.9298-2.9128-4.5174-.9102-1.555-1.7377-3.1426-2.499-4.7303.7448-1.5876 1.5888-3.1917 2.4825-4.7466.9433-1.604 1.9032-3.1262 2.8962-4.5502 1.7874-.1473 3.6078-.2455 5.4449-.2455 1.8205 0 3.6409.0818 5.4118.2291.9929 1.424 1.9694 2.9298 2.9127 4.5175.9103 1.5549 1.7377 3.1426 2.499 4.7303-.7447 1.5876-1.5722 3.1916-2.4824 4.7466Zm3.8892-1.555c.6454 1.5877 1.2081 3.1917 1.655 4.7303-1.5723.3764-3.2438.7038-4.9484.9493.5958-.9166 1.175-1.8495 1.7377-2.8152.5461-.9493 1.0592-1.8987 1.5557-2.8644ZM29.5083 47.8684c-1.1254-1.1457-2.2342-2.4224-3.3431-3.8136 1.0758.0491 2.1846.0818 3.31.0818s2.2508-.0164 3.343-.0818c-1.0922 1.4076-2.2011 2.6679-3.3099 3.8136Zm-8.9535-7.0053c-1.7046-.2455-3.3596-.5565-4.9318-.933.4468-1.5385.993-3.1098 1.6219-4.6975.4965.9493 1.0095 1.8987 1.5722 2.848.5627.9493 1.1419 1.8823 1.7377 2.7825Zm8.8873-24.7643c1.1254 1.1458 2.2342 2.4224 3.343 3.8137-1.0757-.0491-2.1845-.0818-3.3099-.0818s-2.2508.0163-3.3431.0818c1.0923-1.3913 2.2011-2.6679 3.31-3.8137Zm-8.9038 7.0054c-.5958.9166-1.175 1.8495-1.7377 2.8152-.5462.9493-1.0758 1.8987-1.5723 2.848-.6454-1.5877-1.2081-3.1917-1.6549-4.7303 1.5887-.36 3.2437-.671 4.9649-.9329ZM9.64853 37.9987c-4.2533-1.8004-7.01711-4.1573-7.01711-6.0232 0-1.866 2.74726-4.2393 7.01711-6.0233 1.04267-.442 2.16807-.8348 3.32647-1.1949.6786 2.3242 1.5888 4.763 2.7142 7.2509-1.1088 2.4715-2.0025 4.8939-2.6645 7.2181-1.1916-.3764-2.317-.7856-3.37617-1.2276Zm6.47097 17.006c-1.6384-.9329-2.3501-4.4683-1.7874-9.0022.1324-1.113.3476-2.2914.6124-3.5027 2.35.5729 4.9318 1.0148 7.646 1.2931 1.6218 2.1933 3.3099 4.2065 4.998 5.9414-3.9223 3.6009-7.5964 5.5814-10.1119 5.5814-.5296 0-.993-.0982-1.3571-.311Zm28.5484-9.0677c.5627 4.5503-.1324 8.0857-1.7543 9.0186-.3641.2128-.8275.311-1.3902.311-2.4824 0-6.1896-1.9641-10.1119-5.5486 1.6881-1.7514 3.3762-3.7318 4.9649-5.9415 2.7142-.2782 5.296-.7201 7.646-1.3094.2979 1.2112.5131 2.3733.6455 3.4699Zm4.6339-7.9383c-1.0426.442-2.168.8348-3.3265 1.1949-.6785-2.3242-1.5888-4.763-2.7141-7.2509 1.1088-2.4715 2.0025-4.8939 2.6645-7.2181 1.1916.3764 2.3169.7693 3.3761 1.2112 4.2533 1.8004 7.0171 4.1574 7.0171 6.0233-.0165 1.8986-2.7638 4.2556-7.0171 6.0396Z"/>
  <path fill="#58C4DC" d="M29.475 37.4259c3.0345 0 5.4945-2.4329 5.4945-5.4341 0-3.0011-2.46-5.434-5.4945-5.434-3.0345 0-5.4945 2.4329-5.4945 5.434 0 3.0012 2.46 5.4341 5.4945 5.4341Z"/>
</svg>
