<svg width="52" height="64" viewBox="0 0 52 64" fill="none" xmlns="http://www.w3.org/2000/svg">
<path fill-rule="evenodd" clip-rule="evenodd" d="M0 20.015C5.75103 23.0801 15.2524 25.0826 26 25.0826C36.7476 25.0826 46.2488 23.0801 52 20.015C52 23.1137 52 24.9619 52 25.5596C52 29.5118 40.3594 32.7156 26 32.7156C11.6406 32.7156 0 29.5118 0 25.5596C0 25.043 0 23.1948 0 20.015ZM52 32.4187C52 35.7404 52 37.705 52 38.3124C52 42.0717 40.3594 45.1193 26 45.1193C11.6406 45.1193 0 42.0717 0 38.3124C0 37.7882 0 35.8237 0 32.4187C5.75103 35.4838 15.2524 37.4863 26 37.4863C36.7476 37.4863 46.2488 35.4838 52 32.4187ZM52 44.8224V50.8439C52 54.7964 40.3594 58 26 58C11.6406 58 0 54.7964 0 50.8439V44.8224C5.75103 47.8874 15.2524 49.8897 26 49.8897C36.7476 49.8897 46.2488 47.8874 52 44.8224ZM26 20.3119C11.6406 20.3119 0 17.1081 0 13.156C0 9.20383 11.6406 6 26 6C40.3594 6 52 9.20383 52 13.156C52 17.1081 40.3594 20.3119 26 20.3119Z" fill="#fff"/>
</svg>
